<svg xmlns="http://www.w3.org/2000/svg" xmlns:xlink="http://www.w3.org/1999/xlink" width="316.277" height="27.429" viewBox="0 0 316.277 27.429">
  <defs>
    <linearGradient id="linear-gradient" x1="1.023" y1="-0.668" x2="-0.051" y2="1.461" gradientUnits="objectBoundingBox">
      <stop offset="0" stop-color="#4c5bef"/>
      <stop offset="1" stop-color="#ec4876"/>
    </linearGradient>
  </defs>
  <path id="Path_1" data-name="Path 1" d="M1.2,1.456V-2.909A8.387,8.387,0,0,0,3.783-1.415a8.286,8.286,0,0,0,2.81.5,6.231,6.231,0,0,0,1.453-.15,3.4,3.4,0,0,0,1.037-.416A1.814,1.814,0,0,0,9.7-2.111a1.565,1.565,0,0,0,.2-.784A1.7,1.7,0,0,0,9.58-3.918a3.523,3.523,0,0,0-.893-.832,9.335,9.335,0,0,0-1.344-.737q-.777-.355-1.678-.723A8.562,8.562,0,0,1,2.248-8.542,5.092,5.092,0,0,1,1.123-11.87,5.3,5.3,0,0,1,1.737-14.5,5.213,5.213,0,0,1,3.408-16.3a7.492,7.492,0,0,1,2.448-1.043A12.58,12.58,0,0,1,8.8-17.68a17.72,17.72,0,0,1,2.707.184,10.648,10.648,0,0,1,2.176.566v4.078a6.578,6.578,0,0,0-1.071-.6,8.483,8.483,0,0,0-1.193-.43,9.1,9.1,0,0,0-1.221-.252,8.64,8.64,0,0,0-1.153-.082,6.011,6.011,0,0,0-1.364.143,3.5,3.5,0,0,0-1.037.4,2,2,0,0,0-.655.621,1.471,1.471,0,0,0-.232.812,1.55,1.55,0,0,0,.259.88,2.973,2.973,0,0,0,.737.737,7.816,7.816,0,0,0,1.159.682q.682.334,1.541.689a17.175,17.175,0,0,1,2.107,1.043,7.492,7.492,0,0,1,1.6,1.248A4.862,4.862,0,0,1,14.19-5.371a5.615,5.615,0,0,1,.355,2.08,5.572,5.572,0,0,1-.621,2.748,5.038,5.038,0,0,1-1.685,1.8,7.3,7.3,0,0,1-2.476.989,14.307,14.307,0,0,1-2.98.3,16.572,16.572,0,0,1-3.062-.273A9.244,9.244,0,0,1,1.2,1.456Zm29.544.75h-4.3V-5.732q0-3.069-2.237-3.069a2.29,2.29,0,0,0-1.855.859,3.314,3.314,0,0,0-.709,2.182V2.206h-4.31V-18.471h4.31v8.784h.055A4.9,4.9,0,0,1,26-12.1q4.747,0,4.747,5.729Zm10.066.341A7.508,7.508,0,0,1,35.325.59a7.1,7.1,0,0,1-2-5.313A7.1,7.1,0,0,1,35.4-10.144,7.834,7.834,0,0,1,41.005-12.1a7.418,7.418,0,0,1,5.456,1.957,6.957,6.957,0,0,1,1.978,5.176A7.385,7.385,0,0,1,46.4.529,7.591,7.591,0,0,1,40.815,2.547ZM40.924-8.8a2.875,2.875,0,0,0-2.373,1.05A4.631,4.631,0,0,0,37.7-4.777q0,4.024,3.246,4.024,3.1,0,3.1-4.133Q44.047-8.8,40.924-8.8ZM55.6.583h-.055V8.631h-4.31V-11.761h4.31v2.1H55.6A5.067,5.067,0,0,1,60.087-12.1a5.049,5.049,0,0,1,4.194,1.862,7.927,7.927,0,0,1,1.48,5.067A8.593,8.593,0,0,1,64.036.433a5.626,5.626,0,0,1-4.59,2.114A4.349,4.349,0,0,1,55.6.583Zm-.123-5.729v1.118a3.556,3.556,0,0,0,.764,2.36,2.486,2.486,0,0,0,2.005.914,2.643,2.643,0,0,0,2.285-1.139,5.5,5.5,0,0,0,.812-3.226q0-3.683-2.864-3.683a2.69,2.69,0,0,0-2.162,1A4,4,0,0,0,55.477-5.146ZM82.92,2.547A7.508,7.508,0,0,1,77.43.59a7.1,7.1,0,0,1-2-5.313,7.1,7.1,0,0,1,2.073-5.422A7.834,7.834,0,0,1,83.111-12.1a7.418,7.418,0,0,1,5.456,1.957,6.957,6.957,0,0,1,1.978,5.176,7.385,7.385,0,0,1-2.039,5.5A7.591,7.591,0,0,1,82.92,2.547ZM83.029-8.8a2.875,2.875,0,0,0-2.373,1.05,4.631,4.631,0,0,0-.846,2.973q0,4.024,3.246,4.024,3.1,0,3.1-4.133Q86.153-8.8,83.029-8.8Zm23.8,11.007h-4.3V-5.555q0-3.246-2.319-3.246a2.3,2.3,0,0,0-1.841.859,3.274,3.274,0,0,0-.723,2.182V2.206h-4.31V-11.761h4.31v2.21h.055a4.939,4.939,0,0,1,4.487-2.551q4.638,0,4.637,5.756Zm7.72,0h-4.31V-18.471h4.31Zm5.811-16.177a2.517,2.517,0,0,1-1.787-.648,2.087,2.087,0,0,1-.7-1.589,2.013,2.013,0,0,1,.7-1.582,2.6,2.6,0,0,1,1.787-.614,2.6,2.6,0,0,1,1.794.614,2.022,2.022,0,0,1,.689,1.582,2.079,2.079,0,0,1-.689,1.609A2.56,2.56,0,0,1,120.361-13.97Zm2.128,16.177h-4.31V-11.761h4.31Zm17.118,0h-4.3V-5.555q0-3.246-2.319-3.246a2.3,2.3,0,0,0-1.841.859,3.274,3.274,0,0,0-.723,2.182V2.206h-4.31V-11.761h4.31v2.21h.055a4.939,4.939,0,0,1,4.487-2.551q4.638,0,4.637,5.756ZM155.565-3.55h-9.111q.218,3.042,3.833,3.042A7.483,7.483,0,0,0,154.338-1.6v3.11A10.642,10.642,0,0,1,149.3,2.547,7.085,7.085,0,0,1,144.053.672a7.086,7.086,0,0,1-1.869-5.231,7.474,7.474,0,0,1,2.019-5.51,6.725,6.725,0,0,1,4.965-2.032,6.1,6.1,0,0,1,4.726,1.814,6.986,6.986,0,0,1,1.671,4.924Zm-4-2.646q0-3-2.428-3a2.318,2.318,0,0,0-1.794.859,3.9,3.9,0,0,0-.921,2.141Zm10.639,4.965-2.005,6.9h-3.355l1.391-6.9Zm10.284,3.069V-1.654a9.177,9.177,0,0,0,2.121.955,7.032,7.032,0,0,0,2,.314A4.286,4.286,0,0,0,178.418-.7a1.014,1.014,0,0,0,.662-.955.883.883,0,0,0-.3-.682,2.789,2.789,0,0,0-.771-.477,8.746,8.746,0,0,0-1.03-.368q-.559-.164-1.078-.368a10.324,10.324,0,0,1-1.466-.675,4.238,4.238,0,0,1-1.064-.839,3.3,3.3,0,0,1-.655-1.1,4.409,4.409,0,0,1-.225-1.487A3.827,3.827,0,0,1,173-9.674a4.178,4.178,0,0,1,1.364-1.384,6.232,6.232,0,0,1,1.95-.791A10.17,10.17,0,0,1,178.6-12.1a12.677,12.677,0,0,1,1.882.143,14.049,14.049,0,0,1,1.882.416v3.328a6.8,6.8,0,0,0-1.753-.716,7.393,7.393,0,0,0-1.835-.239,4.065,4.065,0,0,0-.8.075,2.628,2.628,0,0,0-.662.218,1.215,1.215,0,0,0-.45.368.848.848,0,0,0-.164.511.945.945,0,0,0,.246.655,2.132,2.132,0,0,0,.641.471,6.329,6.329,0,0,0,.88.355q.484.157.962.321a12.5,12.5,0,0,1,1.555.655,4.972,4.972,0,0,1,1.193.832,3.267,3.267,0,0,1,.764,1.118,3.975,3.975,0,0,1,.266,1.528,3.985,3.985,0,0,1-.539,2.121,4.313,4.313,0,0,1-1.432,1.432,6.5,6.5,0,0,1-2.06.8,11.418,11.418,0,0,1-2.421.252A12.481,12.481,0,0,1,172.492,1.838Zm26.611.368h-4.3V-5.732q0-3.069-2.237-3.069a2.29,2.29,0,0,0-1.855.859,3.314,3.314,0,0,0-.709,2.182V2.206H185.7V-18.471h4.31v8.784h.055a4.9,4.9,0,0,1,4.3-2.414q4.747,0,4.747,5.729Zm10.066.341A7.508,7.508,0,0,1,203.679.59a7.1,7.1,0,0,1-2-5.313,7.1,7.1,0,0,1,2.073-5.422A7.834,7.834,0,0,1,209.36-12.1a7.418,7.418,0,0,1,5.456,1.957,6.958,6.958,0,0,1,1.978,5.176,7.385,7.385,0,0,1-2.039,5.5A7.591,7.591,0,0,1,209.169,2.547ZM209.278-8.8a2.875,2.875,0,0,0-2.373,1.05,4.631,4.631,0,0,0-.846,2.973q0,4.024,3.246,4.024,3.1,0,3.1-4.133Q212.4-8.8,209.278-8.8ZM223.955.583H223.9V8.631h-4.31V-11.761h4.31v2.1h.055a5.067,5.067,0,0,1,4.487-2.442,5.049,5.049,0,0,1,4.194,1.862,7.927,7.927,0,0,1,1.48,5.067A8.593,8.593,0,0,1,232.391.433a5.626,5.626,0,0,1-4.59,2.114A4.349,4.349,0,0,1,223.955.583Zm-.123-5.729v1.118a3.555,3.555,0,0,0,.764,2.36,2.486,2.486,0,0,0,2.005.914,2.643,2.643,0,0,0,2.285-1.139,5.5,5.5,0,0,0,.812-3.226q0-3.683-2.864-3.683a2.69,2.69,0,0,0-2.162,1A4,4,0,0,0,223.832-5.146ZM243.7,1.838V-1.654a9.177,9.177,0,0,0,2.121.955,7.032,7.032,0,0,0,2,.314A4.286,4.286,0,0,0,249.631-.7a1.014,1.014,0,0,0,.662-.955.883.883,0,0,0-.3-.682,2.789,2.789,0,0,0-.771-.477,8.746,8.746,0,0,0-1.03-.368q-.559-.164-1.078-.368a10.325,10.325,0,0,1-1.466-.675,4.238,4.238,0,0,1-1.064-.839,3.3,3.3,0,0,1-.655-1.1,4.409,4.409,0,0,1-.225-1.487,3.827,3.827,0,0,1,.511-2.019,4.178,4.178,0,0,1,1.364-1.384,6.232,6.232,0,0,1,1.95-.791,10.17,10.17,0,0,1,2.285-.252,12.677,12.677,0,0,1,1.882.143,14.049,14.049,0,0,1,1.882.416v3.328a6.8,6.8,0,0,0-1.753-.716,7.393,7.393,0,0,0-1.835-.239,4.065,4.065,0,0,0-.8.075,2.628,2.628,0,0,0-.662.218,1.215,1.215,0,0,0-.45.368.848.848,0,0,0-.164.511.945.945,0,0,0,.246.655,2.132,2.132,0,0,0,.641.471,6.329,6.329,0,0,0,.88.355q.484.157.962.321a12.5,12.5,0,0,1,1.555.655,4.972,4.972,0,0,1,1.193.832,3.267,3.267,0,0,1,.764,1.118,3.975,3.975,0,0,1,.266,1.528,3.985,3.985,0,0,1-.539,2.121,4.314,4.314,0,0,1-1.432,1.432,6.5,6.5,0,0,1-2.06.8,11.418,11.418,0,0,1-2.421.252A12.481,12.481,0,0,1,243.7,1.838Zm24.824.368h-4.078V.2H264.4a4.552,4.552,0,0,1-4.16,2.346,4.352,4.352,0,0,1-3.2-1.153,4.13,4.13,0,0,1-1.166-3.076q0-4.065,4.815-4.692l3.792-.5q0-2.291-2.482-2.291a8.473,8.473,0,0,0-4.747,1.487v-3.246a10.679,10.679,0,0,1,2.462-.818,12.942,12.942,0,0,1,2.844-.355q5.974,0,5.974,5.961Zm-4.051-5.674v-.941l-2.537.327q-2.1.273-2.1,1.9a1.567,1.567,0,0,0,.511,1.207,1.965,1.965,0,0,0,1.384.471,2.552,2.552,0,0,0,1.978-.839A3.03,3.03,0,0,0,264.478-3.468Zm16.572-11.7a4.354,4.354,0,0,0-1.6-.327q-2.073,0-2.073,2.251v1.487h3.192v3.178h-3.192V2.206h-4.3V-8.583h-2.346v-3.178h2.346v-1.732a5.029,5.029,0,0,1,1.555-3.846,5.93,5.93,0,0,1,4.228-1.459,7.426,7.426,0,0,1,2.182.273ZM295.195-3.55h-9.111q.218,3.042,3.833,3.042A7.483,7.483,0,0,0,293.967-1.6v3.11a10.642,10.642,0,0,1-5.033,1.037A7.085,7.085,0,0,1,283.683.672a7.086,7.086,0,0,1-1.869-5.231,7.475,7.475,0,0,1,2.019-5.51A6.725,6.725,0,0,1,288.8-12.1a6.1,6.1,0,0,1,4.726,1.814,6.986,6.986,0,0,1,1.671,4.924Zm-4-2.646q0-3-2.428-3a2.318,2.318,0,0,0-1.794.859,3.9,3.9,0,0,0-.921,2.141Zm8.484,8.743a2.514,2.514,0,0,1-1.773-.655A2.1,2.1,0,0,1,297.2.283a2.026,2.026,0,0,1,.73-1.609,2.694,2.694,0,0,1,1.821-.627,2.594,2.594,0,0,1,1.807.634,2.066,2.066,0,0,1,.7,1.6,2.078,2.078,0,0,1-.716,1.63A2.7,2.7,0,0,1,299.682,2.547Zm7.57,0a2.514,2.514,0,0,1-1.773-.655A2.1,2.1,0,0,1,304.77.283a2.027,2.027,0,0,1,.73-1.609,2.7,2.7,0,0,1,1.821-.627,2.594,2.594,0,0,1,1.807.634,2.066,2.066,0,0,1,.7,1.6,2.078,2.078,0,0,1-.716,1.63A2.7,2.7,0,0,1,307.252,2.547Zm7.57,0a2.514,2.514,0,0,1-1.773-.655A2.1,2.1,0,0,1,312.34.283a2.026,2.026,0,0,1,.73-1.609,2.694,2.694,0,0,1,1.821-.627,2.594,2.594,0,0,1,1.807.634,2.066,2.066,0,0,1,.7,1.6,2.078,2.078,0,0,1-.716,1.63A2.7,2.7,0,0,1,314.822,2.547Z" transform="translate(-1.123 18.799)" fill="url(#linear-gradient)"/>
</svg>
